<?xml version="1.0" encoding="utf-8"?>
<!-- Generator: Adobe Illustrator 19.1.1, SVG Export Plug-In . SVG Version: 6.00 Build 0)  -->
<svg version="1.1" id="Layer_1" xmlns="http://www.w3.org/2000/svg" xmlns:xlink="http://www.w3.org/1999/xlink" x="0px" y="0px"
	 viewBox="-24 31 90 90" style="enable-background:new -24 31 90 90;" xml:space="preserve">
<style type="text/css">
	.st0{fill:#FFFFFF;}
</style>
<g>
	<path class="st0" d="M21,39.5c11.9,0,13.3,0,18,0.3c4.3,0.2,6.7,0.9,8.3,1.5c2.1,0.8,3.6,1.8,5.1,3.3c1.6,1.6,2.5,3,3.3,5.1
		c0.6,1.6,1.3,3.9,1.5,8.3c0.2,4.7,0.3,6.1,0.3,18c0,11.9,0,13.3-0.3,18c-0.2,4.3-0.9,6.7-1.5,8.3c-0.8,2.1-1.8,3.6-3.3,5.1
		c-1.6,1.6-3,2.5-5.1,3.3c-1.6,0.6-3.9,1.3-8.3,1.5c-4.7,0.2-6.1,0.3-18,0.3s-13.3,0-18-0.3c-4.3-0.2-6.7-0.9-8.3-1.5
		c-2.1-0.8-3.6-1.8-5.1-3.3c-1.6-1.6-2.5-3-3.3-5.1c-0.6-1.6-1.3-4-1.5-8.3c-0.2-4.7-0.3-6.1-0.3-18c0-11.9,0-13.3,0.3-18
		c0.2-4.3,0.9-6.7,1.5-8.3c0.8-2.1,1.8-3.6,3.3-5.1c1.6-1.6,3-2.5,5.1-3.3c1.6-0.6,4-1.3,8.3-1.5C7.7,39.6,9.1,39.5,21,39.5
		 M21,31.5c-12.1,0-13.6,0.1-18.3,0.3c-4.7,0.2-8,1-10.8,2.1c-3,1.1-5.5,2.6-7.9,5.1c-2.5,2.5-4,5-5.1,7.9c-1.2,2.8-1.9,6-2.1,10.8
		c-0.2,4.7-0.3,6.2-0.3,18.3s0.1,13.6,0.3,18.3c0.2,4.7,1,8,2.1,10.8c1.1,3,2.6,5.5,5.1,7.9c2.5,2.5,5,4,7.9,5.1
		c2.8,1.1,6.1,1.9,10.8,2.1s6.3,0.3,18.3,0.3s13.6-0.1,18.3-0.3c4.7-0.2,8-1,10.8-2.1c2.9-1.1,5.4-2.7,7.9-5.1c2.5-2.5,4-5,5.1-7.9
		c1.1-2.8,1.9-6.1,2.1-10.8S65.5,88,65.5,76s-0.1-13.6-0.3-18.3c-0.2-4.7-1-8-2.1-10.8c-1.1-3-2.6-5.5-5.1-7.9c-2.5-2.5-5-4-7.9-5.1
		c-2.8-1.2-6-1.9-10.8-2.1C34.6,31.6,33.1,31.5,21,31.5L21,31.5z"/>
	<path class="st0" d="M21,53.1C8.4,53.1-1.9,63.3-1.9,76S8.4,98.9,21,98.9S43.9,88.6,43.9,76S33.6,53.1,21,53.1z M21,90.8
		c-8.2,0-14.8-6.6-14.8-14.8c0-8.2,6.6-14.8,14.8-14.8S35.8,67.8,35.8,76S29.2,90.8,21,90.8z"/>
	<circle class="st0" cx="44.8" cy="52.2" r="5.3"/>
</g>
</svg>
