<?xml version="1.0" encoding="utf-8"?>
<!-- Generator: Adobe Illustrator 19.1.1, SVG Export Plug-In . SVG Version: 6.00 Build 0)  -->
<svg version="1.1" id="Layer_1" xmlns="http://www.w3.org/2000/svg" xmlns:xlink="http://www.w3.org/1999/xlink" x="0px" y="0px"
	 viewBox="-29 43 81 65" style="enable-background:new -29 43 81 65;" xml:space="preserve">
<style type="text/css">
	.st0{fill:#FFFFFF;}
</style>
<path class="st0" d="M48.4,51.7c-2.9,1.2-5.8,2.1-9,2.5c3.3-1.9,5.7-5,6.9-8.7c-3.1,1.8-6.4,3.1-10,3.8c-2.9-3.1-6.9-5-11.5-5
	c-8.7,0-15.7,7.1-15.7,15.7c0,1.2,0.2,2.4,0.4,3.6c-13-0.7-24.6-6.9-32.4-16.5c-1.3,2.3-2.1,5-2.1,7.9c0,5.5,2.8,10.2,7,13.1
	c-2.6-0.1-5-0.8-7.1-1.9c0,0.1,0,0.1,0,0.2c0,7.7,5.4,14,12.6,15.4c-1.3,0.4-2.7,0.6-4.1,0.6c-1,0-2-0.1-3-0.3
	c2,6.2,7.9,10.8,14.7,10.9c-5.4,4.2-12.2,6.7-19.5,6.7c-1.2,0-2.5-0.1-3.7-0.2c7,4.4,15.2,7.1,24.1,7.1c28.9,0,44.7-23.9,44.7-44.7
	c0-0.7,0-1.3,0-2C43.6,57.6,46.3,54.9,48.4,51.7z"/>
</svg>
